<svg width="513" height="433" viewBox="0 0 513 433" fill="none" xmlns="http://www.w3.org/2000/svg">
<path d="M153.1 7.1997C163 16.0997 163.8 31.1997 154.9 41.0997L82.9 121.1C78.5 126 72.3 128.9 65.7 129C59.1 129.1 52.7999 126.6 48.0999 122L7.99995 81.9997C-1.30005 72.5997 -1.30005 57.3997 7.99995 47.9997C17.3 38.5997 32.6 38.5997 41.9 47.9997L64 70.0997L119.1 8.8997C128 -1.0003 143.1 -1.8003 153 7.0997L153.1 7.1997ZM153.1 167.2C163 176.1 163.8 191.2 154.9 201.1L82.9 281.1C78.5 286 72.3 288.9 65.7 289C59.1 289.1 52.7999 286.6 48.0999 282L7.99995 242C-1.40005 232.6 -1.40005 217.4 7.99995 208.1C17.4 198.8 32.6 198.7 41.9 208.1L64 230.2L119.1 169C128 159.1 143.1 158.3 153 167.2H153.1ZM225 64.9997C225 47.2997 239.3 32.9997 257 32.9997H481C498.7 32.9997 513 47.2997 513 64.9997C513 82.6997 498.7 96.9997 481 96.9997H257C239.3 96.9997 225 82.6997 225 64.9997ZM225 225C225 207.3 239.3 193 257 193H481C498.7 193 513 207.3 513 225C513 242.7 498.7 257 481 257H257C239.3 257 225 242.7 225 225ZM161 385C161 367.3 175.3 353 193 353H481C498.7 353 513 367.3 513 385C513 402.7 498.7 417 481 417H193C175.3 417 161 402.7 161 385ZM49 337C61.7303 337 73.9393 342.057 82.9411 351.059C91.9428 360.06 97 372.269 97 385C97 397.73 91.9428 409.939 82.9411 418.941C73.9393 427.943 61.7303 433 49 433C36.2696 433 24.0606 427.943 15.0588 418.941C6.05708 409.939 0.999951 397.73 0.999951 385C0.999951 372.269 6.05708 360.06 15.0588 351.059C24.0606 342.057 36.2696 337 49 337Z" fill="#F5EEE6"/>
</svg>
